<?xml version="1.0" standalone="no"?>
<!DOCTYPE svg PUBLIC "-//W3C//DTD SVG 20010904//EN"
 "http://www.w3.org/TR/2001/REC-SVG-20010904/DTD/svg10.dtd">
<svg version="1.0" xmlns="http://www.w3.org/2000/svg"
 width="700.000000pt" height="700.000000pt" viewBox="0 0 700.000000 700.000000"
 preserveAspectRatio="xMidYMid meet">
<metadata>
Created by potrace 1.11, written by Peter Selinger 2001-2013
</metadata>
<g transform="translate(0.000000,700.000000) scale(0.100000,-0.100000)"
fill="#000000" stroke="none">
<path d="M1630 3490 l0 -2600 315 0 315 0 0 1494 c0 1463 -3 1634 -35 2131
-26 393 -44 719 -40 723 6 6 26 -37 283 -593 195 -420 399 -829 1066 -2135
l825 -1615 366 -3 365 -2 0 2600 0 2600 -315 0 -315 0 0 -1492 c0 -1597 1
-1634 55 -2383 13 -187 27 -370 31 -407 5 -54 3 -68 -7 -68 -9 0 -110 208
-252 518 -197 428 -385 803 -1084 2175 l-846 1657 -364 0 -363 0 0 -2600z"/>
</g>
</svg>
