<svg id="Layer_1" data-name="Layer 1" xmlns="http://www.w3.org/2000/svg" viewBox="0 0 59.792 39.433"><defs><style>.cls-1{fill:#f1f0f8}.cls-2{fill:#e0deef}.cls-3{fill:#f5f5fa}.cls-4{fill:#d7d6ec}.cls-5{fill:#f89e54}.cls-6{fill:#466eb5}</style></defs><title>ico-pen</title><path class="cls-1" d="M45.432 29.048S57.916 27.7 59.7 16.837C61.269 7.305 53.988 1.994 48.669.661s-12.837 2.9-16.025 4.495a14.944 14.944 0 0 1-8.2 1.822c-2.5-.192-5.919-2.5-10.245-3.188-3.025-.477-8.5-1.246-12.294 4.1S.464 22.275 8.136 25.274c5.612 2.194 8.06 4.818 9.25 8.075.9 2.455 3.351 6.07 7.833 6.232 4.395.16 7.735-1.681 10.385-5.738 1.56-2.389 4.553-4.554 9.828-4.795z" transform="translate(-.126 -.158)"/><g id="Flat"><path class="cls-2" d="M6.212 37.588h28.4a1.3 1.3 0 0 0 1.288-1.315V2.094H4.921v34.178a1.3 1.3 0 0 0 1.291 1.316z" transform="translate(-.126 -.158)"/><path class="cls-3" d="M4.921 4.03H35.9V1.448a1.291 1.291 0 0 0-1.293-1.29H6.212a1.291 1.291 0 0 0-1.291 1.29z" transform="translate(-.126 -.158)"/><path class="cls-2" d="M6.892 2.739a.673.673 0 0 1-.458-.187.606.606 0 0 1-.134-.213.608.608 0 0 1 0-.491.656.656 0 0 1 .136-.213.646.646 0 0 1 1.1.459.638.638 0 0 1-.632.645zm1.901-.016a.638.638 0 0 1-.645-.632v-.013a.675.675 0 0 1 .187-.458.606.606 0 0 1 .213-.136.644.644 0 0 1 .7 1.052.673.673 0 0 1-.455.187zm1.971 0a.643.643 0 0 1-.245-.051.758.758 0 0 1-.213-.136.653.653 0 0 1 0-.916.667.667 0 0 1 .916 0 .653.653 0 0 1 0 .916.675.675 0 0 1-.458.187z" transform="translate(-.126 -.158)"/><path class="cls-3" d="M11.016 6.994h13.061l6.36 6.361v19.421a.932.932 0 0 1-.932.932H11.016a.932.932 0 0 1-.932-.932V7.927a.933.933 0 0 1 .932-.933z" transform="translate(-.126 -.158)"/><path class="cls-4" d="M30.437 13.355l-6.36-6.361V12.5a.853.853 0 0 0 .853.853z" transform="translate(-.126 -.158)"/><rect class="cls-2" x="12.502" y="10.017" width="8.905" height="1.272" rx=".636" ry=".636"/><rect class="cls-2" x="12.502" y="13.833" width="8.905" height="1.272" rx=".636" ry=".636"/><rect class="cls-2" x="12.502" y="17.649" width="14.409" height="1.272" rx=".636" ry=".636"/><rect class="cls-2" x="12.502" y="21.466" width="12.916" height="1.272" rx=".636" ry=".636"/><rect class="cls-2" x="12.502" y="25.282" width="12.06" height="1.272" rx=".636" ry=".636"/><rect class="cls-2" x="12.502" y="29.098" width="10.788" height="1.272" rx=".636" ry=".636"/></g><g><path class="cls-3" d="M35.3 19.558c-.361.257-.853.6-1.5 1.021-1.665 1.095-4.029-.7-4.029-.7L26.15 31.244l11.606-2.486s-1.557-2.524-.308-4.076c.527-.654.937-1.138 1.235-1.478z" transform="translate(-.126 -.158)"/><path class="cls-5" d="M56.641 3.162a2.8 2.8 0 0 0-3.913-.181L36.816 17.216l-.066-.071a.4.4 0 0 0-.57-.021l-1.411 1.311a.4.4 0 0 0-.021.57l4.412 4.749a.4.4 0 0 0 .57.021l1.412-1.312a.4.4 0 0 0 .021-.57l-.108-.115L56.5 7.105a2.8 2.8 0 0 0 .141-3.943z" transform="translate(-.126 -.158)"/><path class="cls-6" d="M56.978 2.937l-.288.263.288-.267a3.2 3.2 0 0 0-4.462-.206L36.851 16.744a.8.8 0 0 0-.889.134l-1.411 1.312a.8.8 0 0 0-.042 1.125l.178.191q-.5.349-1.1.745c-1.411.928-3.554-.666-3.575-.683a.395.395 0 0 0-.612.2l-3.625 11.356a.393.393 0 0 0 .375.512.386.386 0 0 0 .082-.008l11.606-2.485a.393.393 0 0 0 .252-.591c-.014-.022-1.4-2.308-.336-3.624.331-.41.642-.786.928-1.122l.239.257a.789.789 0 0 0 .555.254h.03a.79.79 0 0 0 .541-.213l1.411-1.312a.8.8 0 0 0 .174-.932l15.19-14.425a3.2 3.2 0 0 0 .156-4.498zm-19.836 21.5c-1.067 1.325-.4 3.179.022 4.047L26.73 30.717 29.987 20.5c.824.5 2.606 1.345 4.028.41.441-.29.847-.564 1.212-.819l1.136 1.222-3.594 3.335a1.712 1.712 0 0 0-1.113-.187 3.032 3.032 0 0 0-2.373 2.2 1.587 1.587 0 0 0 .326 1.452 1.51 1.51 0 0 0 1.129.455 1.979 1.979 0 0 0 .294-.022 3.031 3.031 0 0 0 2.374-2.2 1.713 1.713 0 0 0-.1-1.121l3.6-3.337 1.246 1.341c-.316.357-.652.762-1.01 1.207zm-4.5 1.736a2.252 2.252 0 0 1-1.72 1.6.7.7 0 0 1-.869-.936 2.252 2.252 0 0 1 1.72-1.6 1.228 1.228 0 0 1 .186-.014.73.73 0 0 1 .548.2.842.842 0 0 1 .132.749zm8.2-4.637a.393.393 0 0 0-.017.553l.106.13-1.431 1.31-4.411-4.764 1.426-1.311.066.072a.394.394 0 0 0 .55.025L50.784 5.335l3.319 3.6zM54.673 8.392L51.37 4.81l1.67-1.494a2.4 2.4 0 0 1 3.242 3.547z" transform="translate(-.126 -.158)"/><animateTransform attributeName="transform" attributeType="XML" type="translate" dur="3s" values="2,0;0,3;2,0" repeatCount="indefinite"/></g></svg>