<svg id="Layer_1" data-name="Layer 1" xmlns="http://www.w3.org/2000/svg" viewBox="0 0 59.75 38.175"><defs><style>.cls-1{fill:#f1f0f8}.cls-2{fill:#e0deef}.cls-3{fill:#f5f5fa}.cls-4{fill:#f7f7fb}.cls-5{fill:#f3f2f9}.cls-6{fill:#466eb5}.cls-7{fill:#f89e54}</style></defs><title>ico-cog</title><path class="cls-1" d="M39.672 28.37C35 35.413 26.93 37.917 19.134 38.168 12.2 38.391 1.718 33.4.408 24.7-1.613 11.285 8.935 3.435 16.962 3.217c7.778-.211 14.486 6.333 22.011 4.057 3.452-1.044 6.105-4.091 9.172-5.181C51.624.857 55.6 1.946 58.428 5.9c2.48 3.464 1.785 9.6-1.679 12.076C51.7 21.588 45.029 20.3 39.672 28.37z" transform="translate(-.156)"/><path class="cls-2" d="M4.427 35.464a1.28 1.28 0 0 0 1.267 1.291h27.884a1.28 1.28 0 0 0 1.267-1.291V3.8H4.427z" transform="translate(-.156)"/><path class="cls-3" d="M33.578 0H5.7a1.268 1.268 0 0 0-1.273 1.267V3.8h30.418V1.267A1.267 1.267 0 0 0 33.578 0z" transform="translate(-.156)"/><path class="cls-2" d="M6.362 2.535a.669.669 0 0 1-.45-.184.6.6 0 0 1-.133-.209.6.6 0 0 1 0-.482.676.676 0 0 1 .133-.209A.634.634 0 0 1 7 1.9a.628.628 0 0 1-.621.634zm1.867-.016A.626.626 0 0 1 7.6 1.9v-.014a.666.666 0 0 1 .183-.45.587.587 0 0 1 .21-.133.633.633 0 0 1 .69 1.033.666.666 0 0 1-.454.183zm1.936 0a.641.641 0 0 1-.241-.05.715.715 0 0 1-.209-.133.641.641 0 0 1 0-.9.653.653 0 0 1 .9 0 .641.641 0 0 1 0 .9.665.665 0 0 1-.45.183z" transform="translate(-.156)"/><rect class="cls-4" x="7.502" y="6.704" width="23.525" height="11.534" rx=".456" ry=".456"/><path class="cls-2" d="M19.575 15.669h-9.367a.323.323 0 0 1-.317-.351.365.365 0 0 1 .352-.352h9.367a.324.324 0 0 1 .317.352.365.365 0 0 1-.352.351zm0-1.801h-9.367a.323.323 0 0 1-.317-.351.364.364 0 0 1 .352-.351h9.367a.324.324 0 0 1 .317.352.365.365 0 0 1-.352.35zm0-1.801h-9.367a.323.323 0 0 1-.317-.351.364.364 0 0 1 .352-.351h9.367a.323.323 0 0 1 .317.351.365.365 0 0 1-.352.351zm0-1.801h-9.367a.324.324 0 0 1-.317-.352.364.364 0 0 1 .352-.351h9.367a.323.323 0 0 1 .317.351.365.365 0 0 1-.352.352z" transform="translate(-.156)"/><rect class="cls-4" x="7.502" y="21.368" width="23.525" height="11.534" rx=".456" ry=".456"/><path class="cls-2" d="M19.575 30.333h-9.367a.323.323 0 0 1-.317-.351.364.364 0 0 1 .352-.351h9.367a.323.323 0 0 1 .317.351.365.365 0 0 1-.352.351zm0-1.801h-9.367a.323.323 0 0 1-.317-.351.364.364 0 0 1 .352-.351h9.367a.323.323 0 0 1 .317.351.365.365 0 0 1-.352.351zm0-1.801h-9.367a.324.324 0 0 1-.317-.352.364.364 0 0 1 .352-.351h9.367a.323.323 0 0 1 .317.351.365.365 0 0 1-.352.352zm0-1.8h-9.367a.324.324 0 0 1-.317-.352.364.364 0 0 1 .352-.351h9.367a.323.323 0 0 1 .317.351.366.366 0 0 1-.352.352zm8.558-16.093H21.9a.49.49 0 0 0-.49.49v6.148a.822.822 0 0 0 .059.234l1.6-3.162a.108.108 0 0 1 .192 0l1.039 2.007 1.964-3.523a.108.108 0 0 1 .191 0l2.168 4.336v-6.04a.49.49 0 0 0-.49-.49zm-3.976 2.6a.77.77 0 1 1 .77-.77.77.77 0 0 1-.77.766z" transform="translate(-.156)"/><path class="cls-5" d="M26.264 11.032L24.3 14.555l-1.046-2.008a.108.108 0 0 0-.192 0l-1.6 3.162.016.026.009.015.008.011.01.014.01.012.008.01.02.022.009.008.011.01.01.009.01.008.012.009.01.007.025.015.01.006.013.007h.049l.029.008h6.339a.491.491 0 0 0 .49-.49v-.1l-2.168-4.336a.108.108 0 0 0-.128.052z" transform="translate(-.156)"/><circle class="cls-5" cx="24.001" cy="10.664" r=".77"/><path class="cls-2" d="M28.133 23.5H21.9a.49.49 0 0 0-.49.49v6.15a.822.822 0 0 0 .059.234l1.6-3.162a.108.108 0 0 1 .192 0l1.039 2.007 1.964-3.519a.108.108 0 0 1 .191 0l2.168 4.335v-6.043a.49.49 0 0 0-.49-.492zm-3.976 2.6a.77.77 0 1 1 .77-.77.77.77 0 0 1-.77.77z" transform="translate(-.156)"/><path class="cls-5" d="M26.264 25.7L24.3 29.219l-1.046-2.008a.108.108 0 0 0-.192 0l-1.6 3.162.016.026.009.015.008.011.01.014.01.012.008.01.02.022.009.009.011.01.01.009.01.008.012.009.01.006.025.016.01.006.013.006.012.005h.037l.029.008h6.346a.49.49 0 0 0 .49-.49v-.1L26.455 25.7a.108.108 0 0 0-.191 0z" transform="translate(-.156)"/><circle class="cls-5" cx="24.001" cy="25.328" r=".77"/><g><path class="cls-3" d="M56.693 19.329l-1.336-.486a11.093 11.093 0 0 0-.159-3.632l1.288-.6a.9.9 0 0 0 .437-1.2l-1.383-2.966a.9.9 0 0 0-1.2-.438l-1.287.6a11.093 11.093 0 0 0-2.683-2.454l.486-1.335a.9.9 0 0 0-.541-1.159l-3.074-1.118a.9.9 0 0 0-1.159.54L45.6 6.417a11.1 11.1 0 0 0-3.633.159l-.6-1.288a.9.9 0 0 0-1.2-.437L37.2 6.234a.9.9 0 0 0-.437 1.2l.6 1.287a11.1 11.1 0 0 0-2.457 2.679l-1.335-.486a.9.9 0 0 0-1.159.541l-1.118 3.074a.9.9 0 0 0 .54 1.158l1.335.486a11.091 11.091 0 0 0 .159 3.632l-1.287.6a.9.9 0 0 0-.438 1.2l1.383 2.964a.9.9 0 0 0 1.2.437l1.288-.6a11.1 11.1 0 0 0 2.681 2.456l-.484 1.338a.906.906 0 0 0 .541 1.159l3.074 1.118a.9.9 0 0 0 1.159-.541l.485-1.334a11.09 11.09 0 0 0 3.632-.159l.6 1.288a.9.9 0 0 0 1.2.437l2.964-1.383a.9.9 0 0 0 .437-1.2l-.6-1.288a11.1 11.1 0 0 0 2.456-2.681l1.335.485a.9.9 0 0 0 1.159-.54l1.118-3.074a.9.9 0 0 0-.538-1.158zm-14.8 4.134a6.6 6.6 0 1 1 8.463-3.948 6.6 6.6 0 0 1-8.464 3.948z" transform="translate(-.156)"/><path class="cls-6" d="M41.6 30.921a1.3 1.3 0 0 1-.442-.078l-3.073-1.118a1.29 1.29 0 0 1-.772-1.654l.382-1.051a11.512 11.512 0 0 1-2.326-2.131l-1.014.473a1.29 1.29 0 0 1-1.714-.624l-1.384-2.964a1.291 1.291 0 0 1 .625-1.715l1.013-.472a11.437 11.437 0 0 1-.138-3.151l-1.057-.382a1.292 1.292 0 0 1-.771-1.653l1.118-3.074a1.29 1.29 0 0 1 1.654-.771l1.051.382a11.456 11.456 0 0 1 2.13-2.326L36.411 7.6a1.293 1.293 0 0 1 .624-1.715L40 4.5a1.291 1.291 0 0 1 1.715.624l.472 1.014A11.437 11.437 0 0 1 45.337 6l.383-1.052a1.29 1.29 0 0 1 1.653-.771L50.446 5.3a1.29 1.29 0 0 1 .772 1.654L50.836 8a11.422 11.422 0 0 1 2.325 2.13l1.014-.473a1.291 1.291 0 0 1 1.715.624l1.383 2.963a1.293 1.293 0 0 1-.624 1.715l-1.014.473a11.476 11.476 0 0 1 .138 3.151l1.052.382a1.293 1.293 0 0 1 .775 1.655l-1.118 3.074a1.292 1.292 0 0 1-1.653.771l-1.052-.382a11.456 11.456 0 0 1-2.13 2.326l.473 1.014a1.292 1.292 0 0 1-.624 1.715l-2.964 1.383a1.291 1.291 0 0 1-1.715-.624l-.473-1.014a11.474 11.474 0 0 1-3.151.138l-.382 1.05a1.294 1.294 0 0 1-1.211.85zm-6.121-6.895a.385.385 0 0 1 .3.148 10.717 10.717 0 0 0 2.589 2.37.387.387 0 0 1 .152.456l-.486 1.336a.52.52 0 0 0 .31.664l3.074 1.118a.518.518 0 0 0 .664-.309l.485-1.335a.386.386 0 0 1 .409-.251 10.7 10.7 0 0 0 3.506-.154.388.388 0 0 1 .43.215l.6 1.287a.519.519 0 0 0 .689.251l2.964-1.383a.519.519 0 0 0 .25-.689l-.6-1.288a.386.386 0 0 1 .111-.467 10.7 10.7 0 0 0 2.374-2.589.385.385 0 0 1 .455-.152l1.335.486a.519.519 0 0 0 .665-.31l1.118-3.074a.519.519 0 0 0-.31-.664l-1.336-.486a.386.386 0 0 1-.251-.409 10.7 10.7 0 0 0-.154-3.506.386.386 0 0 1 .215-.43l1.288-.6a.52.52 0 0 0 .25-.689l-1.385-2.964a.51.51 0 0 0-.292-.268.521.521 0 0 0-.4.017l-1.287.6a.386.386 0 0 1-.467-.112 10.716 10.716 0 0 0-2.588-2.37.386.386 0 0 1-.152-.455l.486-1.335a.52.52 0 0 0-.31-.665L47.109 4.9a.52.52 0 0 0-.664.31l-.486 1.336a.385.385 0 0 1-.409.251 10.7 10.7 0 0 0-3.506.153.385.385 0 0 1-.429-.214l-.6-1.288a.517.517 0 0 0-.689-.25l-2.965 1.386a.518.518 0 0 0-.25.689l.6 1.287a.386.386 0 0 1-.111.467 10.659 10.659 0 0 0-2.37 2.588.39.39 0 0 1-.456.152l-1.335-.486a.517.517 0 0 0-.664.31l-1.119 3.074a.52.52 0 0 0 .31.664l1.335.485a.388.388 0 0 1 .251.409 10.669 10.669 0 0 0 .154 3.506.386.386 0 0 1-.215.43l-1.287.6a.519.519 0 0 0-.251.689l1.383 2.964a.51.51 0 0 0 .292.268.516.516 0 0 0 .4-.017l1.288-.6a.389.389 0 0 1 .159-.037z" transform="translate(-.156)"/><path class="cls-7" d="M46.407 11.053a6.6 6.6 0 1 0 3.948 8.462 6.6 6.6 0 0 0-3.948-8.462zm-3.82 10.5a4.571 4.571 0 1 1 5.858-2.733 4.572 4.572 0 0 1-5.858 2.734z" transform="translate(-.156)"/><animateTransform attributeName="transform" attributeType="XML" type="translate" values="2,0;-4,0;2,0" dur="3s" repeatCount="indefinite"/><path class="cls-6" d="M44.154 24.251a6.991 6.991 0 1 1 2.384-13.561 6.992 6.992 0 0 1-2.384 13.561zm0-13.211a6.22 6.22 0 1 0 2.12.375 6.2 6.2 0 0 0-2.119-.375zm-.011 11.176a4.95 4.95 0 0 1-1.689-.3 4.956 4.956 0 1 1 1.689.3zm-1.426-1.025a4.185 4.185 0 1 0-2.5-5.364 4.19 4.19 0 0 0 2.5 5.364z" transform="translate(-.156)"/></g></svg>