<svg id="Layer_1" data-name="Layer 1" xmlns="http://www.w3.org/2000/svg" viewBox="0 0 59.064 40.414"><defs><style>.cls-1{fill:#f1f0f8}.cls-2{fill:#e0deef}.cls-3{fill:#f5f5fa}.cls-4{fill:#f89e54}.cls-5{fill:#466eb5}</style></defs><title>ico-anim</title><path class="cls-1" d="M25.685 5.193c3.24 2.967 6.413 1.682 10.562-.858 4.488-2.748 13-2.936 18.573 2.713 6.515 6.607 5.74 16.678-.457 25.2-7.5 10.316-22.982 10.846-27.31 1.666-1.416-3-2.424-7.913-5.581-9.845-3.107-1.9-6.326-.7-9.829-.58-3.653.128-8.275-2.189-10.033-5.756-1.885-3.824-2.589-10.441 4-15.575C9.512-.88 18.485-1.4 25.685 5.193z" transform="translate(-.306)"/><path class="cls-2" d="M9.942 38.391h29.664a1.334 1.334 0 0 0 1.348-1.321V2.747H8.593V37.07a1.335 1.335 0 0 0 1.348 1.321z" transform="translate(-.306)"/><path class="cls-3" d="M8.593 4.691h32.361V2.1A1.323 1.323 0 0 0 39.606.8H9.942a1.324 1.324 0 0 0-1.349 1.3z" transform="translate(-.306)"/><path class="cls-2" d="M10.572 3.4a.686.686 0 0 1-.46-.188.61.61 0 0 1-.136-.214.613.613 0 0 1 0-.493.678.678 0 0 1 .136-.214.648.648 0 0 1 1.108.461.641.641 0 0 1-.635.648zm1.91-.021a.641.641 0 0 1-.648-.635v-.013a.675.675 0 0 1 .188-.46.584.584 0 0 1 .213-.136.647.647 0 0 1 .707 1.056.686.686 0 0 1-.46.188zm1.979 0a.655.655 0 0 1-.247-.052.758.758 0 0 1-.214-.136.656.656 0 0 1 0-.92.67.67 0 0 1 .92 0 .658.658 0 0 1 0 .92.686.686 0 0 1-.459.188z" transform="translate(-.306)"/><path class="cls-3" d="M14.663 24.111v9.983a.416.416 0 0 0 .428.4h2.967a.416.416 0 0 0 .428-.4V21.381L16.331 23.4a2.694 2.694 0 0 1-1.668.711zm5.275-2.776v12.759a.416.416 0 0 0 .428.4h2.967a.416.416 0 0 0 .428-.4V23.956a2.668 2.668 0 0 1-1.785-.711zm5.275 2.225v10.534a.416.416 0 0 0 .428.4h2.967a.416.416 0 0 0 .428-.4v-14.04l-3.4 3.187a2.536 2.536 0 0 1-.423.319zm8.748-8.151l-3.447 3.23a.083.083 0 0 0-.026.06v15.4a.416.416 0 0 0 .428.4h2.967a.416.416 0 0 0 .428-.4V15.64a.085.085 0 0 0-.032-.065c-.081-.067-.144-.125-.192-.166a.1.1 0 0 0-.126 0z" transform="translate(-.306)"/><path class="cls-3" d="M36.421 9.451a.856.856 0 0 0-.625-.214h-.077c-1.374.059-2.744.123-4.118.183a.923.923 0 0 0-.634.205.66.66 0 0 0-.15.209.648.648 0 0 0 .218.812l.343.328c.237.228.479.456.721.679L23.8 19.48l-3.731-3.515a1.24 1.24 0 0 0-1.68 0l-4.97 4.677a1.073 1.073 0 0 0 0 1.582l.223.21a1.222 1.222 0 0 0 .842.328 1.21 1.21 0 0 0 .837-.328l3.906-3.679 3.731 3.515a1.225 1.225 0 0 0 .842.328 1.238 1.238 0 0 0 .842-.328l9.369-8.825 1.06.993a.816.816 0 0 0 .566.283.727.727 0 0 0 .339-.087.915.915 0 0 0 .2-.141.893.893 0 0 0 .256-.643c.039-.838.083-1.677.126-2.52l.063-1.263a.754.754 0 0 0-.2-.616z" transform="translate(-.306)"/><g><path class="cls-4" d="M51.24 30.027L42.7 21.48a11.773 11.773 0 0 1-2.606 2.605h-.006l8.547 8.549a1.846 1.846 0 0 0 2.61-2.611z" transform="translate(-.306)"/><path class="cls-3" d="M42.7 21.48l.005-.006a11.706 11.706 0 1 0-2.617 2.615h.006A11.773 11.773 0 0 0 42.7 21.48zm-9.463 2.369a9.232 9.232 0 1 1 9.232-9.232 9.242 9.242 0 0 1-9.237 9.232z" transform="translate(-.306)"/><path class="cls-5" d="M33.232 24.244a9.627 9.627 0 1 1 9.627-9.627 9.638 9.638 0 0 1-9.627 9.627zm0-18.465a8.838 8.838 0 1 0 8.838 8.838 8.848 8.848 0 0 0-8.838-8.838z" transform="translate(-.306)"/><path class="cls-5" d="M39.985 15.087a.394.394 0 0 1-.395-.394 6.441 6.441 0 0 0-6.434-6.434.395.395 0 0 1 0-.789 7.232 7.232 0 0 1 7.224 7.223.394.394 0 0 1-.395.394z" transform="translate(-.306)"/><path class="cls-5" d="M51.519 29.748l-8.311-8.313a12.1 12.1 0 1 0-3.171 3.165l8.313 8.315a2.241 2.241 0 1 0 3.169-3.169zm-11.662-5.983a11.313 11.313 0 1 1 2.523-2.523 11.33 11.33 0 0 1-2.523 2.523zm1.09.146c.064-.053.129-.105.191-.16.219-.189.433-.384.637-.588l.008-.008c.2-.2.392-.411.578-.625.057-.066.111-.134.167-.2.069-.083.141-.164.208-.249l2.04 2.04-2.058 2.047-2.035-2.036c.09-.072.176-.148.264-.221zm10.014 8.448a1.45 1.45 0 0 1-2.053 0l-5.632-5.634 2.058-2.047 5.627 5.628a1.45 1.45 0 0 1 0 2.053z" transform="translate(-.306)"/><animateTransform attributeName="transform" attributeType="XML" type="translate" dur="3s" values="0,2;3,-1;0,2" repeatCount="indefinite"/></g></svg>