<svg xmlns="http://www.w3.org/2000/svg" width="40" height="28" viewBox="0 0 40 28"><defs><style>.cls-1{fill:#4bd7c8;fill-rule:evenodd}</style></defs><path id="Icon_mail" data-name="Icon mail" class="cls-1" d="M738 3546h-36a2 2 0 0 0-2 2v24a2 2 0 0 0 2 2h36a2 2 0 0 0 2-2v-24a2 2 0 0 0-2-2zm-2 2l-16 16-16-16h32zm2 22.59l-9.293-9.3a1 1 0 0 0-1.414 1.42l9.293 9.29h-33.172l9.293-9.29a1 1 0 0 0-1.414-1.42l-9.293 9.3v-21.84h.019l16.567 16.66a1.989 1.989 0 0 0 2.828 0l16.586-16.7v21.88z" transform="translate(-700 -3546)"/></svg>