<svg xmlns="http://www.w3.org/2000/svg" width="20.03" height="16" viewBox="0 0 20.03 16"><defs><style>.cls-1{fill:#333;fill-rule:evenodd}</style></defs><path id="Icon_twitter" data-name="Icon twitter" class="cls-1" d="M1173.97 4238.96a3.748 3.748 0 0 1 2.7 1.12 7.779 7.779 0 0 0 2.35-.86 3.636 3.636 0 0 1-1.62 1.96 7.536 7.536 0 0 0 2.12-.56 7.193 7.193 0 0 1-1.85 1.84l.01.46a10.243 10.243 0 0 1-10.52 10.12 10.774 10.774 0 0 1-5.67-1.6 8.637 8.637 0 0 0 .88.04 7.64 7.64 0 0 0 4.6-1.51 3.7 3.7 0 0 1-3.46-2.47 4.049 4.049 0 0 0 .7.06 3.848 3.848 0 0 0 .97-.12 3.6 3.6 0 0 1-2.96-3.49v-.04a3.907 3.907 0 0 0 1.67.44 3.516 3.516 0 0 1-1.64-2.96 3.383 3.383 0 0 1 .5-1.78 10.644 10.644 0 0 0 7.62 3.71 3.592 3.592 0 0 1-.1-.81 3.63 3.63 0 0 1 3.7-3.55m0-.97a4.636 4.636 0 0 0-4.69 4.25 9.681 9.681 0 0 1-5.76-3.24.992.992 0 0 0-.77-.36.22.22 0 0 0-.08.01 1 1 0 0 0-.79.47 4.411 4.411 0 0 0-.63 2.27 4.351 4.351 0 0 0 .36 1.75.934.934 0 0 0-.39.77v.04a4.406 4.406 0 0 0 1.36 3.18 1 1 0 0 0-.02.66 4.539 4.539 0 0 0 1.9 2.4 6.581 6.581 0 0 1-2.09.33 6.854 6.854 0 0 1-.77-.04.375.375 0 0 0-.11-.01 1 1 0 0 0-.94.64.953.953 0 0 0 .4 1.14 11.862 11.862 0 0 0 6.21 1.75 11.183 11.183 0 0 0 11.52-11.07 8.008 8.008 0 0 0 1.65-1.74.952.952 0 0 0 .19-.57.966.966 0 0 0-.62-.89 1.945 1.945 0 0 1 .08-.22.966.966 0 0 0-.33-1.05 1.038 1.038 0 0 0-.63-.21 1.059 1.059 0 0 0-.51.14 6.727 6.727 0 0 1-1.55.63 4.816 4.816 0 0 0-2.99-1.03z" transform="translate(-1160.5 -4238)"/></svg>