<svg xmlns="http://www.w3.org/2000/svg" width="20" height="31" viewBox="0 0 20 31"><defs><style>.cls-1{fill:#f9f6f3;fill-rule:evenodd}</style></defs><path id="icon_mouse" data-name="icon mouse" class="cls-1" d="M721.538 645h-3.076a8.5 8.5 0 0 0-8.462 8.525v13.95a8.5 8.5 0 0 0 8.462 8.525h3.076a8.5 8.5 0 0 0 8.462-8.525v-13.95a8.5 8.5 0 0 0-8.462-8.525zm6.924 22.475a6.957 6.957 0 0 1-6.924 6.975h-3.076a6.957 6.957 0 0 1-6.924-6.975v-13.95a6.957 6.957 0 0 1 6.924-6.975h3.076a6.957 6.957 0 0 1 6.924 6.975v13.95zm-8.462-18.6a.772.772 0 0 0-.769.775v9.3a.769.769 0 1 0 1.538 0v-9.3a.772.772 0 0 0-.769-.775z" transform="translate(-710 -645)"/></svg>