<svg xmlns="http://www.w3.org/2000/svg" width="19" height="15.031" viewBox="0 0 19 15.031"><defs><style>.cls-1{fill:#333;fill-rule:evenodd}</style></defs><path id="icon_download" data-name="icon download" class="cls-1" d="M289.5 474.654a.5.5 0 0 0-.5.492v2.169c0 2.824-1.1 3.574-2.166 3.574h-11.667a3.444 3.444 0 0 1-3.167-3.574v-2.169a.5.5 0 0 0-1 0v2.169a4.46 4.46 0 0 0 4.167 4.557h11.667c2.1 0 3.166-1.777 3.166-4.557v-2.169a.5.5 0 0 0-.5-.492zm-9.375 3.839a.694.694 0 0 0 .875 0c.266-.231 4.97-5 4.97-5a.439.439 0 0 0 .088-.348.538.538 0 0 0-.9-.348L281 476.875v-9.544a.5.5 0 0 0-1 0v9.544l-4.146-4.065a.507.507 0 0 0-.708.012.514.514 0 0 0 0 .718c.194.21 4.729 4.768 4.979 4.953z" transform="translate(-271 -466.844)"/></svg>