<svg xmlns="http://www.w3.org/2000/svg" width="20" height="20" viewBox="0 0 20 20"><defs><style>.cls-1{fill:#333;fill-rule:evenodd}</style></defs><path id="Icon_dribbble" data-name="Icon dribbble" class="cls-1" d="M1109.5 4236.5a10 10 0 1 0 10 10 10.016 10.016 0 0 0-10-10zm9 10c0 .1-.01.21-.02.31a13.634 13.634 0 0 0-6.37-.56c-.13-.38-.26-.75-.39-1.09-.1-.28-.22-.56-.35-.84a9.8 9.8 0 0 0 4.88-3.76 8.976 8.976 0 0 1 2.25 5.94zm-2.98-6.68a8.778 8.778 0 0 1-4.58 3.59 38.6 38.6 0 0 0-3.6-5.64 9.128 9.128 0 0 1 2.16-.27 8.955 8.955 0 0 1 6.02 2.32zm-9.2-1.73a39.646 39.646 0 0 1 3.66 5.63 37.906 37.906 0 0 1-9.31 1.04 9.007 9.007 0 0 1 5.65-6.67zm-5.82 8.41c0-.25.02-.5.04-.75.12.01.3.01.51.01a37.435 37.435 0 0 0 9.34-1.11.037.037 0 0 1 .03-.01q.195.435.36.87c.11.3.23.62.34.95a2.437 2.437 0 0 0-.26.06c-3.77 1.09-7.18 5.28-7.88 6.17a8.966 8.966 0 0 1-2.48-6.19zm3.21 6.89c.48-.62 3.88-4.88 7.43-5.91.1-.03.2-.05.3-.07 1.08 3.29 2.06 7.09 2.08 7.13h.02a8.992 8.992 0 0 1-9.83-1.15zm10.71.64c-.24-.9-1.08-4.02-1.99-6.82a13.037 13.037 0 0 1 5.96.63 8.984 8.984 0 0 1-3.97 6.19z" transform="translate(-1099.5 -4236.5)"/></svg>