<svg xmlns="http://www.w3.org/2000/svg" width="20" height="19" viewBox="0 0 20 19"><defs><style>.cls-1{fill:#2dade8;fill-rule:evenodd}</style></defs><path id="Stroke" class="cls-1" d="M448 2108l2.783 5.6 6.222.9-4.5 4.35 1.063 6.15-5.568-2.9-5.565 2.9 1.063-6.15-4.5-4.35 6.222-.9 2.78-5.6m0-.99a1 1 0 0 0-.9.55l-2.55 5.13-5.7.82a1.01 1.01 0 0 0-.807.68.993.993 0 0 0 .253 1.02l4.126 3.99-.974 5.64a.987.987 0 0 0 .4.97 1.045 1.045 0 0 0 .588.19.967.967 0 0 0 .465-.12l5.1-2.66 5.1 2.66a.967.967 0 0 0 .465.12 1.045 1.045 0 0 0 .588-.19.985.985 0 0 0 .4-.97l-.973-5.64 4.125-3.99a.993.993 0 0 0 .253-1.02 1.01 1.01 0 0 0-.807-.68l-5.7-.82-2.55-5.13a1 1 0 0 0-.9-.55z" transform="translate(-438 -2107)"/></svg>